<?xml version="1.0" encoding="utf-8"?>
<!-- Generator: Adobe Illustrator 24.1.0, SVG Export Plug-In . SVG Version: 6.00 Build 0)  -->
<svg version="1.1" id="Layer_1" focusable="false" xmlns="http://www.w3.org/2000/svg" xmlns:xlink="http://www.w3.org/1999/xlink"
	 x="0px" y="0px" viewBox="0 0 785 785" style="enable-background:new 0 0 785 785;" xml:space="preserve">
<style type="text/css">
	.st0{fill:#192965;}
	.st1{fill:#FFFFFF;}
</style>
<circle class="st0" cx="393" cy="392.9" r="392.5"/>
<path class="st1" d="M392,392c60.2,0,109-48.8,109-109s-48.8-109-109-109s-109,48.8-109,109S331.8,392,392,392z M468.3,419.2h-14.2
	c-18.9,8.7-39.9,13.6-62.1,13.6s-43.1-4.9-62.1-13.6h-14.2c-63.2,0-114.5,51.3-114.5,114.5v35.4c0,22.6,18.3,40.9,40.9,40.9h299.8
	c22.6,0,40.9-18.3,40.9-40.9v-35.4C582.8,470.5,531.5,419.2,468.3,419.2z"/>
</svg>
