<?xml version="1.0" encoding="utf-8"?>
<!-- Generator: Adobe Illustrator 24.1.0, SVG Export Plug-In . SVG Version: 6.00 Build 0)  -->
<svg version="1.1" id="Logo" xmlns="http://www.w3.org/2000/svg" xmlns:xlink="http://www.w3.org/1999/xlink" x="0px" y="0px"
	 viewBox="0 0 258.64 38.27" style="enable-background:new 0 0 258.64 38.27;" xml:space="preserve">
<style type="text/css">
	.st0{fill:#FAAFFF;}
	.st1{fill:#BCCFFF;}
	.st2{fill:none;}
	.st3{fill:#192965;}
	.st4{font-family:'Bellota-Regular';}
	.st5{font-size:28px;}
</style>
<polygon class="st2" points="-172.03,-144 -194.7,-144 -194.7,-144 -172.03,-144 "/>
<g>
	<g>
		<path class="st0" d="M258.3,34c0,2.2-1.8,4-4,4H7c-2.2,0-4-1.8-4-4V8c0-2.2,1.8-4,4-4h247.3c2.2,0,4,1.8,4,4V34z"/>
	</g>
	<g>
		<path class="st1" d="M255.3,30c0,2.2-1.8,4-4,4H4c-2.2,0-4-1.8-4-4V4c0-2.2,1.8-4,4-4h247.3c2.2,0,4,1.8,4,4V30z"/>
	</g>
</g>
<rect x="4.97" y="4.33" class="st2" width="250.33" height="29.67"/>
<text transform="matrix(1 0 0 1 4.9668 24.6895)" class="st3 st4 st5">Hold that thought...</text>
</svg>
